<svg width="14" height="14" viewBox="0 0 14 14" fill="none" xmlns="http://www.w3.org/2000/svg">
<path d="M3.22929 12.7668C3.32366 12.8159 3.4296 12.8384 3.53577 12.8318C3.64193 12.8252 3.74429 12.7899 3.83188 12.7295L11.4152 7.47951C11.4927 7.42582 11.556 7.35416 11.5998 7.27065C11.6435 7.18714 11.6663 7.09427 11.6663 7.00001C11.6663 6.90574 11.6435 6.81287 11.5998 6.72936C11.556 6.64586 11.4927 6.57419 11.4152 6.52051L3.83188 1.27051C3.74436 1.20995 3.64195 1.17449 3.53573 1.16797C3.4295 1.16144 3.32352 1.1841 3.22925 1.23349C3.13498 1.28288 3.05602 1.35711 3.00092 1.44816C2.94581 1.5392 2.91666 1.64358 2.91663 1.75001V12.25C2.91661 12.3565 2.94574 12.4609 3.00085 12.552C3.05597 12.6432 3.13497 12.7174 3.22929 12.7668Z" fill="white"/>
</svg>
