<svg width="28" height="28" viewBox="0 0 28 28" fill="none" xmlns="http://www.w3.org/2000/svg">
<path d="M14.0002 25.6667C12.4057 25.6667 10.8988 25.3603 9.47933 24.7474C8.05989 24.1353 6.8205 23.2992 5.76116 22.239C4.70105 21.1797 3.86494 19.9403 3.25283 18.5209C2.63994 17.1014 2.3335 15.5945 2.3335 14C2.3335 12.3862 2.63994 10.8745 3.25283 9.46521C3.86494 8.0551 4.70105 6.82037 5.76116 5.76104C6.8205 4.70093 8.05989 3.86443 9.47933 3.25154C10.8988 2.63943 12.4057 2.33337 14.0002 2.33337C15.6141 2.33337 17.1257 2.63943 18.535 3.25154C19.9451 3.86443 21.1798 4.70093 22.2392 5.76104C23.2993 6.82037 24.1354 8.0551 24.7475 9.46521C25.3604 10.8745 25.6668 12.3862 25.6668 14C25.6668 15.5945 25.3604 17.1014 24.7475 18.5209C24.1354 19.9403 23.2993 21.1797 22.2392 22.239C21.1798 23.2992 19.9451 24.1353 18.535 24.7474C17.1257 25.3603 15.6141 25.6667 14.0002 25.6667ZM14.0002 23.275C14.5057 22.575 14.9432 21.8459 15.3127 21.0875C15.6821 20.3292 15.9835 19.5223 16.2168 18.6667H11.7835C12.0168 19.5223 12.3182 20.3292 12.6877 21.0875C13.0571 21.8459 13.4946 22.575 14.0002 23.275ZM10.9668 22.8084C10.6168 22.1667 10.3108 21.5005 10.0487 20.8099C9.78577 20.12 9.56683 19.4056 9.39183 18.6667H5.95016C6.51405 19.6389 7.21872 20.4848 8.06416 21.2042C8.91039 21.9237 9.87794 22.4584 10.9668 22.8084ZM17.0335 22.8084C18.1224 22.4584 19.0896 21.9237 19.935 21.2042C20.7812 20.4848 21.4863 19.6389 22.0502 18.6667H18.6085C18.4335 19.4056 18.2149 20.12 17.9528 20.8099C17.6899 21.5005 17.3835 22.1667 17.0335 22.8084ZM4.9585 16.3334H8.92516C8.86683 15.9445 8.82289 15.5603 8.79333 15.1807C8.76455 14.8019 8.75016 14.4084 8.75016 14C8.75016 13.5917 8.76455 13.1982 8.79333 12.8194C8.82289 12.4398 8.86683 12.0556 8.92516 11.6667H4.9585C4.86127 12.0556 4.78816 12.4398 4.73916 12.8194C4.69094 13.1982 4.66683 13.5917 4.66683 14C4.66683 14.4084 4.69094 14.8019 4.73916 15.1807C4.78816 15.5603 4.86127 15.9445 4.9585 16.3334ZM11.2585 16.3334H16.7418C16.8002 15.9445 16.8441 15.5603 16.8737 15.1807C16.9024 14.8019 16.9168 14.4084 16.9168 14C16.9168 13.5917 16.9024 13.1982 16.8737 12.8194C16.8441 12.4398 16.8002 12.0556 16.7418 11.6667H11.2585C11.2002 12.0556 11.1566 12.4398 11.1278 12.8194C11.0983 13.1982 11.0835 13.5917 11.0835 14C11.0835 14.4084 11.0983 14.8019 11.1278 15.1807C11.1566 15.5603 11.2002 15.9445 11.2585 16.3334ZM19.0752 16.3334H23.0418C23.1391 15.9445 23.2122 15.5603 23.2612 15.1807C23.3094 14.8019 23.3335 14.4084 23.3335 14C23.3335 13.5917 23.3094 13.1982 23.2612 12.8194C23.2122 12.4398 23.1391 12.0556 23.0418 11.6667H19.0752C19.1335 12.0556 19.1771 12.4398 19.2058 12.8194C19.2354 13.1982 19.2502 13.5917 19.2502 14C19.2502 14.4084 19.2354 14.8019 19.2058 15.1807C19.1771 15.5603 19.1335 15.9445 19.0752 16.3334ZM18.6085 9.33337H22.0502C21.4863 8.36115 20.7812 7.51532 19.935 6.79587C19.0896 6.07643 18.1224 5.54171 17.0335 5.19171C17.3835 5.83337 17.6899 6.49915 17.9528 7.18904C18.2149 7.87971 18.4335 8.59449 18.6085 9.33337ZM11.7835 9.33337H16.2168C15.9835 8.47782 15.6821 7.67087 15.3127 6.91254C14.9432 6.15421 14.5057 5.42504 14.0002 4.72504C13.4946 5.42504 13.0571 6.15421 12.6877 6.91254C12.3182 7.67087 12.0168 8.47782 11.7835 9.33337ZM5.95016 9.33337H9.39183C9.56683 8.59449 9.78577 7.87971 10.0487 7.18904C10.3108 6.49915 10.6168 5.83337 10.9668 5.19171C9.87794 5.54171 8.91039 6.07643 8.06416 6.79587C7.21872 7.51532 6.51405 8.36115 5.95016 9.33337Z" fill="white"/>
</svg>
