<svg width="28" height="28" viewBox="0 0 28 28" fill="none" xmlns="http://www.w3.org/2000/svg">
<path fill-rule="evenodd" clip-rule="evenodd" d="M23.4556 22.2962C23.4225 22.8917 23.1626 23.4519 22.7294 23.8618C22.2961 24.2716 21.7222 24.5 21.1258 24.5H6.87381C6.27738 24.5 5.70357 24.2716 5.27028 23.8618C4.83698 23.4519 4.57708 22.8917 4.54398 22.2962L3.6369 5.96283C3.61929 5.64604 3.66647 5.32898 3.77557 5.03105C3.88466 4.73311 4.05337 4.46055 4.27138 4.23003C4.4894 3.99952 4.75213 3.81588 5.04353 3.69036C5.33493 3.56484 5.64886 3.50007 5.96615 3.5H22.0335C22.3508 3.49999 22.6648 3.5647 22.9563 3.69019C23.2477 3.81568 23.5105 3.9993 23.7286 4.22982C23.9467 4.46035 24.1155 4.73293 24.2246 5.03091C24.3337 5.32889 24.3809 5.64599 24.3633 5.96283L23.4556 22.2962ZM19.9755 10.3711C20.4538 10.0561 20.574 9.43133 20.1814 9.02475C19.5155 8.33759 18.7372 7.76905 17.8801 7.34358C16.6901 6.75331 15.3829 6.43699 14.0546 6.41783C12.7252 6.3958 11.4076 6.67123 10.1982 7.224C9.32633 7.62239 8.52845 8.16601 7.83865 8.83167C7.43206 9.226 7.52948 9.85367 7.99673 10.1838L10.5121 11.9607C10.9787 12.2908 11.6367 12.1841 12.1203 11.8761C12.2451 11.7969 12.3751 11.7264 12.5094 11.6649C12.9388 11.4685 13.4046 11.3646 13.8767 11.3598L15.856 9.08425C15.9575 8.96744 16.1012 8.89574 16.2556 8.88491C16.332 8.87955 16.4087 8.88929 16.4814 8.91358C16.5541 8.93788 16.6212 8.97625 16.6791 9.0265C16.7369 9.07675 16.7843 9.1379 16.8185 9.20646C16.8527 9.27503 16.873 9.34965 16.8784 9.42608C16.8838 9.50251 16.874 9.57925 16.8497 9.65191C16.8254 9.72458 16.7871 9.79175 16.7368 9.84958L15.2015 11.6142C15.4094 11.7002 15.608 11.8073 15.7941 11.9338C16.2666 12.2564 16.92 12.383 17.3983 12.068L19.9749 10.3705L19.9755 10.3711Z" fill="white"/>
</svg>
