<svg aria-hidden="true" style="position: absolute; width: 0; height: 0; overflow: hidden;" version="1.1" xmlns="http://www.w3.org/2000/svg" xmlns:xlink="http://www.w3.org/1999/xlink">
<defs>
<symbol id="icon-Burger" viewBox="0 0 52 32">
<path fill="none" stroke="#fff" style="stroke: var(--color1, #fff)" stroke-linejoin="miter" stroke-linecap="round" stroke-miterlimit="4" stroke-width="4" d="M2 2h48"></path>
<path fill="none" stroke="#fff" style="stroke: var(--color1, #fff)" stroke-linejoin="miter" stroke-linecap="round" stroke-miterlimit="4" stroke-width="4" d="M2 16h48"></path>
<path fill="none" stroke="#fff" style="stroke: var(--color1, #fff)" stroke-linejoin="miter" stroke-linecap="round" stroke-miterlimit="4" stroke-width="4" d="M2 30h48"></path>
</symbol>
<symbol id="icon-apple" viewBox="0 0 32 32">
<path fill="#000" style="fill: var(--color2, #000)" d="M32 16c0 8.837-7.163 16-16 16s-16-7.163-16-16c0-8.837 7.163-16 16-16s16 7.163 16 16z"></path>
<path fill="#fff" style="fill: var(--color1, #fff)" d="M19.883 10.667c-1.68 0-2.39 0.807-3.561 0.807-1.2 0-2.115-0.802-3.571-0.802-1.425 0-2.945 0.876-3.91 2.369-1.355 2.105-1.125 6.069 1.070 9.446 0.785 1.209 1.834 2.565 3.209 2.579h0.025c1.195 0 1.55-0.788 3.195-0.797h0.025c1.62 0 1.945 0.793 3.136 0.793h0.025c1.375-0.015 2.48-1.517 3.265-2.721 0.565-0.866 0.775-1.301 1.209-2.281-3.175-1.214-3.685-5.746-0.545-7.483-0.959-1.208-2.305-1.908-3.575-1.908l0.004-0.002z"></path>
<path fill="#fff" style="fill: var(--color1, #fff)" d="M19.699 6.4c-0.967 0.065-2.096 0.67-2.757 1.459-0.6 0.716-1.093 1.778-0.9 2.807h0.077c1.030 0 2.085-0.609 2.7-1.39 0.593-0.743 1.043-1.796 0.879-2.877v0z"></path>
</symbol>
<symbol id="icon-android" viewBox="0 0 32 32">
<path fill="#000" style="fill: var(--color2, #000)" d="M32 16c0 8.837-7.163 16-16 16s-16-7.163-16-16c0-8.837 7.163-16 16-16s16 7.163 16 16z"></path>
<path fill="#fff" style="fill: var(--color1, #fff)" d="M10.623 20.922c0 0.501 0.425 0.911 0.947 0.911h1.082v2.58c0 0.654 0.545 1.187 1.214 1.187 0.671 0 1.214-0.531 1.214-1.187v-2.582h1.889v2.58c0 0.654 0.545 1.187 1.214 1.187 0.671 0 1.214-0.531 1.214-1.187v-2.58h1.082c0.522 0 0.947-0.409 0.947-0.911v-8.468h-10.803v8.47zM18.56 8.064l0.998-1.393c0.058-0.081 0.044-0.191-0.033-0.244-0.078-0.051-0.189-0.026-0.247 0.056l-1.036 1.448c-0.682-0.259-1.443-0.403-2.241-0.403s-1.558 0.144-2.241 0.403l-1.036-1.446c-0.058-0.081-0.169-0.109-0.247-0.056-0.078 0.051-0.091 0.159-0.033 0.244l0.998 1.393c-1.587 0.711-2.698 2.059-2.841 3.634h10.803c-0.147-1.577-1.26-2.925-2.845-3.636v0zM13.721 10.26c-0.118 0-0.234-0.034-0.332-0.097s-0.175-0.153-0.22-0.259c-0.045-0.105-0.057-0.221-0.034-0.333s0.080-0.214 0.164-0.295c0.084-0.081 0.19-0.136 0.306-0.158s0.236-0.011 0.345 0.033 0.203 0.117 0.268 0.212c0.066 0.095 0.101 0.206 0.101 0.32-0 0.153-0.064 0.299-0.176 0.407s-0.264 0.169-0.422 0.169v0zM18.354 10.26c-0.118 0-0.234-0.034-0.332-0.097s-0.175-0.153-0.22-0.259c-0.045-0.105-0.057-0.221-0.034-0.333s0.080-0.214 0.164-0.295c0.084-0.081 0.19-0.136 0.306-0.158s0.236-0.011 0.346 0.033c0.109 0.044 0.203 0.117 0.268 0.212s0.101 0.206 0.101 0.32c-0 0.153-0.064 0.299-0.176 0.407s-0.264 0.169-0.422 0.169zM23.319 12.418c-0.671 0-1.214 0.531-1.214 1.187v4.637c0 0.654 0.545 1.187 1.214 1.187 0.671 0 1.214-0.531 1.214-1.187v-4.639c0.002-0.656-0.54-1.185-1.214-1.185zM8.68 12.418c-0.671 0-1.214 0.531-1.214 1.187v4.637c0 0.654 0.545 1.187 1.214 1.187 0.671 0 1.214-0.531 1.214-1.187v-4.639c0-0.656-0.545-1.185-1.214-1.185z"></path>
</symbol>
<symbol id="icon-linkedin" viewBox="0 0 32 32">
<path fill="#fff" style="fill: var(--color1, #fff)" d="M26.4 16c0 5.744-4.656 10.4-10.4 10.4s-10.4-4.656-10.4-10.4c0-5.744 4.656-10.4 10.4-10.4s10.4 4.656 10.4 10.4z"></path>
<path fill="#000" style="fill: var(--color2, #000)" d="M15.84 0.64c-8.395 0-15.2 6.805-15.2 15.2s6.805 15.2 15.2 15.2c8.395 0 15.2-6.805 15.2-15.2s-6.805-15.2-15.2-15.2zM12.119 22.14h-3.078v-9.905h3.078v9.905zM10.561 11.019c-0.972 0-1.601-0.689-1.601-1.541 0-0.869 0.648-1.537 1.64-1.537s1.601 0.668 1.62 1.537c0 0.852-0.627 1.541-1.659 1.541zM23.361 22.14h-3.078v-5.489c0-1.278-0.446-2.145-1.56-2.145-0.85 0-1.355 0.587-1.579 1.153-0.082 0.201-0.103 0.486-0.103 0.77v5.711h-3.080v-6.745c0-1.237-0.040-2.27-0.081-3.16h2.674l0.141 1.376h0.062c0.405-0.646 1.398-1.599 3.059-1.599 2.025 0 3.544 1.357 3.544 4.273v5.857z"></path>
</symbol>
<symbol id="icon-twitter" viewBox="0 0 32 32">
<path fill="#fff" style="fill: var(--color1, #fff)" d="M26.4 16c0 5.744-4.656 10.4-10.4 10.4s-10.4-4.656-10.4-10.4c0-5.744 4.656-10.4 10.4-10.4s10.4 4.656 10.4 10.4z"></path>
<path fill="#000" style="fill: var(--color2, #000)" d="M15.84 0.64c-8.395 0-15.2 6.805-15.2 15.2s6.805 15.2 15.2 15.2c8.395 0 15.2-6.805 15.2-15.2s-6.805-15.2-15.2-15.2zM22.023 13.091c0.006 0.13 0.008 0.26 0.008 0.386 0 3.958-3.010 8.52-8.517 8.52-1.627 0.003-3.221-0.465-4.589-1.346 0.233 0.029 0.472 0.040 0.714 0.040 1.403 0 2.693-0.477 3.718-1.281-0.624-0.012-1.229-0.219-1.73-0.591s-0.874-0.892-1.066-1.486c0.448 0.085 0.91 0.067 1.351-0.052-0.678-0.137-1.287-0.504-1.725-1.039s-0.677-1.205-0.677-1.896v-0.036c0.404 0.223 0.866 0.359 1.357 0.375-0.635-0.423-1.085-1.072-1.257-1.816s-0.054-1.525 0.331-2.184c0.752 0.925 1.69 1.681 2.753 2.22s2.227 0.849 3.418 0.91c-0.151-0.642-0.086-1.317 0.185-1.918s0.734-1.096 1.316-1.408c0.582-0.312 1.25-0.422 1.901-0.314s1.248 0.427 1.699 0.909c0.67-0.133 1.312-0.378 1.9-0.727-0.223 0.694-0.691 1.283-1.316 1.658 0.594-0.072 1.173-0.231 1.719-0.473-0.401 0.602-0.907 1.126-1.493 1.55v0z"></path>
</symbol>
<symbol id="icon-facebook" viewBox="0 0 32 32">
<path fill="#fff" style="fill: var(--color1, #fff)" d="M26.4 16c0 5.744-4.656 10.4-10.4 10.4s-10.4-4.656-10.4-10.4c0-5.744 4.656-10.4 10.4-10.4s10.4 4.656 10.4 10.4z"></path>
<path fill="#000" style="fill: var(--color2, #000)" d="M15.84 0.64c-8.395 0-15.2 6.805-15.2 15.2s6.805 15.2 15.2 15.2c8.395 0 15.2-6.805 15.2-15.2s-6.805-15.2-15.2-15.2zM19.441 11.144h-2.285c-0.271 0-0.572 0.356-0.572 0.83v1.65h2.858l-0.432 2.353h-2.426v7.063h-2.696v-7.063h-2.446v-2.353h2.446v-1.384c0-1.986 1.378-3.599 3.268-3.599h2.285v2.503z"></path>
</symbol>
</defs>
</svg>
