<svg aria-hidden="true" style="position:absolute;width:0;height:0;overflow:hidden" xmlns="http://www.w3.org/2000/svg"><defs>
<symbol id="icon-twitter" viewBox="0 0 38 32">
<path fill="#fff" style="fill:var(--color1, #fff)" d="M37.647 3.621A16.11 16.11 0 0 1 33.2 4.84 7.671 7.671 0 0 0 36.595.574a15.424 15.424 0 0 1-4.894 1.868A7.734 7.734 0 0 0 26.063 0C21.79 0 18.35 3.468 18.35 7.72c0 .612.052 1.2.179 1.76-6.416-.313-12.094-3.388-15.908-8.073a7.769 7.769 0 0 0-1.056 3.901 7.728 7.728 0 0 0 3.428 6.414 7.63 7.63 0 0 1-3.487-.951v.085c0 3.751 2.675 6.866 6.184 7.584a7.693 7.693 0 0 1-2.024.254c-.494 0-.993-.028-1.461-.132 1 3.056 3.838 5.304 7.212 5.376a15.509 15.509 0 0 1-9.569 3.292c-.633 0-1.24-.028-1.847-.106 3.419 2.205 7.471 3.464 11.84 3.464 14.202 0 21.967-11.765 21.967-21.962 0-.341-.012-.671-.028-.998 1.532-1.087 2.819-2.445 3.868-4.007z"/>
</symbol>
<symbol id="icon-linkedin" viewBox="0 0 32 32">
<path fill="#fff" style="fill:var(--color1, #fff)" d="M31.992 32v-.001H32V20.263c0-5.741-1.236-10.164-7.948-10.164-3.227 0-5.392 1.771-6.276 3.449h-.093v-2.913h-6.364v21.364h6.627V21.42c0-2.785.528-5.479 3.977-5.479 3.399 0 3.449 3.179 3.449 5.657v10.401h6.62zM.528 10.636h6.635V32H.528V10.636zM3.843 0C1.722 0 0 1.721 0 3.843s1.721 3.879 3.843 3.879c2.121 0 3.843-1.757 3.843-3.879A3.846 3.846 0 0 0 3.843 0z"/>
</symbol>
<symbol id="icon-facebook" viewBox="0 0 17 32">
<path fill="#fff" style="fill:var(--color1, #fff)" d="M15.158 5.085h1.684V.032c-.531-.073-1.244 0-3.368 0-4.434 0-8.421.769-8.421 5.895v5.053H0v4.211h5.053v15.158h5.895V15.408h5.053l.842-4.428h-5.895V6.769c.001-1.731 1.799-1.684 4.211-1.684z"/>
</symbol>
<symbol id="icon-apple" viewBox="0 0 27 32">
<path fill="#fff" style="fill:var(--color1, #fff)" d="M20.372 7.314c-2.881 0-4.098 1.384-6.104 1.384-2.057 0-3.626-1.374-6.122-1.374-2.443 0-5.049 1.502-6.704 4.061-2.323 3.608-1.929 10.404 1.834 16.193C4.622 29.65 6.42 31.975 8.777 32h.043c2.049 0 2.658-1.351 5.478-1.367h.043c2.778 0 3.335 1.359 5.375 1.359h.043c2.358-.025 4.252-2.6 5.598-4.665.969-1.485 1.329-2.23 2.072-3.91-5.443-2.08-6.318-9.85-.934-12.829-1.643-2.072-3.952-3.272-6.129-3.272l.007-.003zM20.056 0c-1.658.111-3.593 1.148-4.726 2.502-1.028 1.227-1.874 3.047-1.542 4.813h.133c1.766 0 3.573-1.045 4.629-2.383 1.017-1.274 1.788-3.079 1.506-4.931z"/>
</symbol>
<symbol id="icon-android" viewBox="0 0 27 32">
<path fill="#fff" style="fill:var(--color1, #fff)" d="M5.073 24.204c0 .836.682 1.518 1.522 1.518h1.74v4.3c0 1.089.875 1.979 1.95 1.979 1.079 0 1.951-.886 1.951-1.979v-4.303h3.037v4.3c0 1.089.875 1.979 1.95 1.979 1.079 0 1.951-.886 1.951-1.979v-4.3h1.74c.84 0 1.522-.682 1.522-1.518V10.087H5.074v14.117zM17.83 2.773 19.434.452c.093-.136.072-.318-.054-.407-.125-.086-.304-.043-.397.093l-1.665 2.414c-1.097-.432-2.318-.671-3.601-.671s-2.504.239-3.601.671L8.451.141C8.358.005 8.18-.041 8.054.048 7.929.134 7.908.312 8 .455l1.604 2.321C7.053 3.962 5.267 6.208 5.039 8.833h17.362c-.236-2.628-2.026-4.875-4.573-6.06zm-7.777 3.66a.958.958 0 0 1-.888-.593.96.96 0 0 1 1.686-.901.965.965 0 0 1-.799 1.495zm7.444 0a.958.958 0 0 1-.888-.593.96.96 0 0 1 1.686-.901.965.965 0 0 1-.799 1.495zm7.981 3.597c-1.079 0-1.95.886-1.95 1.979v7.728c0 1.089.875 1.979 1.95 1.979 1.079 0 1.951-.886 1.951-1.979v-7.732a1.956 1.956 0 0 0-1.951-1.975zm-23.528 0c-1.079 0-1.95.886-1.95 1.979v7.728c0 1.089.875 1.979 1.95 1.979 1.079 0 1.95-.886 1.95-1.979v-7.732a1.962 1.962 0 0 0-1.95-1.975z"/>
</symbol>
<symbol id="icon-burger" viewBox="0 0 52 32">
<path fill="none" stroke="#fff" style="stroke:var(--color1, #fff)" stroke-linecap="round" stroke-width="4" d="M2 2h48M2 16h48M2 30h48"/>
</symbol></defs></svg>