<svg width="39" height="39" fill="none" xmlns="http://www.w3.org/2000/svg">
  <path d="M19.8.8C9.307.8.8 9.307.8 19.8c0 10.494 8.507 19 19 19 10.494 0 19-8.506 19-19 0-10.493-8.506-19-19-19Zm-4.651 26.875h-3.847V15.293h3.847v12.382Zm-1.947-13.902c-1.216 0-2.001-.86-2.001-1.925 0-1.087.809-1.922 2.05-1.922 1.24 0 2 .835 2.025 1.922 0 1.064-.784 1.925-2.075 1.925Zm16 13.902h-3.848v-6.862c0-1.597-.558-2.681-1.95-2.681-1.063 0-1.694.734-1.973 1.44-.103.252-.129.608-.129.962v7.14h-3.85v-8.432c0-1.546-.049-2.838-.1-3.95h3.343l.176 1.72h.077c.507-.808 1.748-2 3.824-2 2.531 0 4.43 1.697 4.43 5.342v7.321Z" fill="url(#a)"/>
  <defs>
    <linearGradient id="a" x1=".043" y1="14.522" x2="34.795" y2="14.539" gradientUnits="userSpaceOnUse">
      <stop stop-color="#00C5EB"/>
      <stop offset="1" stop-color="#B544FE"/>
    </linearGradient>
  </defs>
</svg>
