<svg width="39" height="39" fill="none" xmlns="http://www.w3.org/2000/svg">
  <path d="M19.8.8C9.307.8.8 9.307.8 19.8c0 10.494 8.507 19 19 19 10.494 0 19-8.506 19-19 0-10.493-8.506-19-19-19Zm7.729 15.564c.008.162.01.325.01.483 0 4.948-3.763 10.65-10.646 10.65a10.56 10.56 0 0 1-5.736-1.682c.291.035.59.05.893.05a7.495 7.495 0 0 0 4.647-1.602 3.752 3.752 0 0 1-3.495-2.597 3.76 3.76 0 0 0 1.688-.065 3.745 3.745 0 0 1-3.003-3.67v-.045c.505.28 1.083.45 1.697.47a3.74 3.74 0 0 1-1.158-5 10.64 10.64 0 0 0 7.713 3.913 3.742 3.742 0 0 1 6.376-3.414 7.516 7.516 0 0 0 2.375-.909 3.76 3.76 0 0 1-1.644 2.072 7.518 7.518 0 0 0 2.149-.591 7.585 7.585 0 0 1-1.866 1.937Z" fill="url(#a)"/>
  <defs>
    <linearGradient id="a" x1=".043" y1="14.522" x2="34.795" y2="14.539" gradientUnits="userSpaceOnUse">
      <stop stop-color="#00C5EB"/>
      <stop offset="1" stop-color="#B544FE"/>
    </linearGradient>
  </defs>
</svg>
